<svg width="70" height="64" viewBox="0 0 70 64" fill="none" xmlns="http://www.w3.org/2000/svg">
<path fill-rule="evenodd" clip-rule="evenodd" d="M5.91498 0H64.1493C67.361 0 69.9728 2.60945 69.9728 5.81822V58.1818C69.9728 61.3905 67.361 64 64.1494 64H5.91498C2.70331 64 0.0914917 61.3905 0.0914917 58.1818V5.81822C0.0914917 2.60945 2.70331 0 5.91498 0ZM64.1494 61.0908C65.7552 61.0908 67.0611 59.7861 67.0611 58.1818V5.81822C67.0611 4.2139 65.7552 2.90918 64.1494 2.90918H5.91498C4.30921 2.90918 3.0033 4.2139 3.0033 5.81822V58.1818C3.0033 59.7861 4.30921 61.0908 5.91498 61.0908H64.1494ZM8.82664 5.81824H10.2825C11.0862 5.81824 11.7385 6.46979 11.7385 7.2727C11.7385 8.07561 11.0862 8.72729 10.2825 8.72729H8.82664C8.023 8.72729 7.37073 8.07575 7.37073 7.27283C7.37073 6.46992 8.023 5.81824 8.82664 5.81824ZM16.1059 5.81824H17.5618C18.3655 5.81824 19.0177 6.46992 19.0177 7.27283C19.0177 8.07574 18.3655 8.72742 17.5618 8.72742H16.1059C15.3023 8.72742 14.65 8.07574 14.65 7.27283C14.65 6.46992 15.3023 5.81824 16.1059 5.81824ZM61.2377 5.81824H59.7818C58.9781 5.81824 58.3258 6.46992 58.3258 7.27283C58.3258 8.07574 58.9781 8.72742 59.7818 8.72742H61.2377C62.0413 8.72742 62.6936 8.07574 62.6936 7.27283C62.6936 6.46992 62.0413 5.81824 61.2377 5.81824ZM7.37072 11.6365H62.6936C63.4972 11.6365 64.1493 12.288 64.1493 13.0908C64.1493 13.8937 63.4971 14.5453 62.6934 14.5453H7.37072C6.56708 14.5453 5.91481 13.8938 5.91481 13.091C5.91481 12.2881 6.56708 11.6365 7.37072 11.6365ZM16.1059 20.3638C12.8942 20.3638 10.2824 22.9732 10.2824 26.182V29.091C10.2824 32.2998 12.8942 34.9092 16.1059 34.9092C19.3176 34.9092 21.9294 32.2998 21.9294 29.091V26.182C21.9294 22.9732 19.3176 20.3638 16.1059 20.3638ZM19.0177 29.091C19.0177 30.6953 17.7118 32.0001 16.106 32.0001C14.5001 32.0001 13.1942 30.6953 13.1942 29.091V26.182C13.1942 24.5775 14.5001 23.2728 16.1059 23.2728C17.7117 23.2728 19.0176 24.5775 19.0176 26.1818L19.0177 29.091ZM42.3114 20.3638C39.0997 20.3638 36.4879 22.9732 36.4879 26.182V29.091C36.4879 32.2998 39.0997 34.9092 42.3114 34.9092C45.523 34.9092 48.1349 32.2998 48.1349 29.091V26.182C48.1349 22.9732 45.523 20.3638 42.3114 20.3638ZM45.2232 29.091C45.2232 30.6953 43.9173 32.0001 42.3115 32.0001C40.7056 32.0001 39.3997 30.6953 39.3997 29.091V26.182C39.3997 24.5777 40.7056 23.2729 42.3114 23.2729C43.9171 23.2729 45.223 24.5777 45.223 26.182L45.2232 29.091ZM36.4879 46.5455C36.4879 43.3367 39.0997 40.7273 42.3114 40.7273C45.523 40.7273 48.1349 43.3367 48.1349 46.5455V49.4545C48.1349 52.6633 45.523 55.2727 42.3114 55.2727C39.0997 55.2727 36.4879 52.6633 36.4879 49.4545V46.5455ZM42.3115 52.3635C43.9173 52.3635 45.2232 51.0588 45.2232 49.4545L45.223 46.5455C45.223 44.9412 43.9171 43.6364 42.3114 43.6364C40.7056 43.6364 39.3997 44.9412 39.3997 46.5455V49.4545C39.3997 51.0588 40.7056 52.3635 42.3115 52.3635ZM29.2087 20.3639H26.297C25.4934 20.3639 24.8411 21.0156 24.8411 21.8185C24.8411 22.6214 25.4934 23.2729 26.297 23.2729H27.7529V32.0001H26.297C25.4933 32.0001 24.8411 32.6518 24.8411 33.4548C24.8411 34.2577 25.4933 34.9094 26.297 34.9094H32.1205C32.9241 34.9094 33.5764 34.2577 33.5764 33.4548C33.5764 32.6518 32.9241 32.0001 32.1205 32.0001H30.6646V21.8185C30.6646 21.0154 30.0124 20.3639 29.2087 20.3639ZM13.1942 40.7273H16.1059C16.9096 40.7273 17.5618 41.379 17.5618 42.1819V52.3635H19.0177C19.8214 52.3635 20.4735 53.0152 20.4737 53.8181C20.4737 54.621 19.8214 55.2727 19.0177 55.2727H16.1061H13.1942C12.3906 55.2727 11.7383 54.621 11.7383 53.8181C11.7383 53.0152 12.3906 52.3635 13.1942 52.3635H14.6502V43.6363H13.1942C12.3906 43.6363 11.7383 42.9848 11.7383 42.1819C11.7383 41.379 12.3906 40.7273 13.1942 40.7273ZM29.2087 40.7273H26.297C25.4934 40.7273 24.8411 41.379 24.8411 42.1819C24.8411 42.9848 25.4934 43.6365 26.297 43.6365H27.7529V52.3635H26.297C25.4933 52.3635 24.8411 53.0152 24.8411 53.8181C24.8411 54.621 25.4933 55.2727 26.297 55.2727H29.2089H32.1205C32.9241 55.2727 33.5764 54.621 33.5764 53.8181C33.5763 53.0152 32.9241 52.3635 32.1205 52.3635H30.6646V42.1819C30.6646 41.379 30.0124 40.7273 29.2087 40.7273ZM52.5025 40.7273H55.4142C56.2178 40.7273 56.8701 41.379 56.8702 42.1819V52.3635H58.326C59.1297 52.3635 59.7818 53.0152 59.7819 53.8181C59.7819 54.621 59.1297 55.2727 58.326 55.2727H55.4143H52.5025C51.6988 55.2727 51.0466 54.621 51.0466 53.8181C51.0466 53.0152 51.6988 52.3635 52.5025 52.3635H53.9584V43.6365H52.5025C51.6988 43.6365 51.0466 42.9848 51.0466 42.1819C51.0466 41.379 51.6988 40.7273 52.5025 40.7273ZM55.4142 20.3639H52.5025C51.6988 20.3639 51.0466 21.0156 51.0466 21.8185C51.0466 22.6214 51.6988 23.2729 52.5025 23.2729H53.9584V32.0001H52.5025C51.6988 32.0001 51.0466 32.6518 51.0466 33.4548C51.0466 34.2577 51.6988 34.9094 52.5025 34.9094H58.326C59.1297 34.9094 59.7819 34.2577 59.7819 33.4548C59.7819 32.6518 59.1297 32.0001 58.326 32.0001H56.8702V21.8185C56.8701 21.0154 56.2178 20.3639 55.4142 20.3639Z" fill="#F6FEF1"/>
</svg>
