<svg width="67" height="66" viewBox="0 0 67 66" fill="none" xmlns="http://www.w3.org/2000/svg">
<path d="M33.4256 1C15.7365 1 1.39674 14.6009 1.39674 31.3782C1.39674 40.4932 5.64212 48.6556 12.3462 54.2221C13.0704 54.8235 13.5182 55.7034 13.5182 56.6447V63.7704C13.5182 64.7009 14.4922 65.2932 15.2934 64.8501L22.451 60.8906C23.1633 60.4966 24.0033 60.4154 24.7899 60.6248C27.5378 61.3565 30.4312 61.7563 33.4256 61.7563C51.1148 61.7563 65.4547 48.1555 65.4547 31.3782C65.4547 14.6009 51.1148 1 33.4256 1Z" stroke="white" stroke-width="1.33333" stroke-linecap="round" stroke-linejoin="round"/>
<path d="M19.7401 31.682C24.4941 31.8686 32.0848 34.8717 33.0764 39.5298C33.6168 42.0686 28.4173 44.7518 25.9004 48.9803C24.7159 50.9705 21.9496 52.5292 20.6808 50.5917C19.491 48.7748 19.2542 46.8981 19.1948 45.656C19.0956 43.5802 15.427 40.7955 15.774 38.2639C15.9064 37.2978 16.241 36.2874 16.4223 35.2863C16.5301 34.6914 19.136 31.6583 19.7401 31.682V31.682Z" stroke="white" stroke-width="1.33333" stroke-linecap="round" stroke-linejoin="round"/>
<path d="M14.5843 30.7202C11.9815 29.505 12.1054 28.1886 12.8739 26.9482C13.6424 25.7078 15.7742 27.4545 17.1622 27.4798C18.5503 27.5051 21.8863 22.3914 23.8499 21.3789C25.8135 20.3663 27.7222 19.4297 26.7555 17.3537C25.7888 15.2777 22.5414 15.9867 21.2028 15.126C19.8643 14.2654 19.4924 11.5312 18.8479 11.3288C18.2034 11.1263 12.3469 16.3484 10.0728 21.0246C8.21368 24.8471 6.2801 27.6824 8.06497 29.6824C9.84983 31.6823 11.3619 29.2011 14.5843 30.7202Z" stroke="white" stroke-width="1.33333" stroke-linecap="round" stroke-linejoin="round"/>
<path d="M53.1302 29.2011C53.1302 29.2011 58.3358 35.0996 59.2034 31.6566C62.0333 20.427 49.6599 11.3791 48.1478 11.531C46.6358 11.6829 43.0663 12.7461 42.7192 14.0373C42.3721 15.3284 45.322 16.1891 45.3963 17.1763C45.4705 18.1636 41.9754 18.7965 40.042 19.5306C38.1086 20.2646 37.7863 22.5683 38.2574 23.4039C38.7284 24.2394 40.8602 22.3659 42.4217 22.2901C43.9833 22.2142 45.8673 23.2267 47.3794 23.2773C48.8914 23.3279 49.065 21.4547 50.6515 22.0116C52.238 22.5685 51.4695 25.252 48.8668 26.0115C46.2641 26.771 45.1238 25.0116 42.6449 25.0495C39.4341 25.0986 35.7042 26.8721 35.9768 31.201C36.2495 35.5299 43.2894 33.7326 44.1322 35.8337C44.9749 37.9347 44.7022 44.213 46.1897 46.4154C47.6771 48.6178 50.8251 48.8204 52.1885 45.3521C53.5518 41.8839 51.8414 40.0866 53.0312 38.3651C54.2211 36.6436 58.5713 34.2953 56.266 32.0169" stroke="white" stroke-width="1.33333" stroke-linecap="round" stroke-linejoin="round"/>
<path d="M23.2911 12.3366C24.1404 11.0976 25.5495 9.60132 26.8561 9.60132M26.8561 9.60132C28.1626 9.60132 28.8625 10.278 29.8704 10.278C30.8783 10.278 33.2674 9.75373 35.4697 9.75373C37.6721 9.75373 38.12 11.088 36.179 12.794C34.238 14.5 31.7343 15.8437 30.3498 15.8437C28.9652 15.8437 28.1064 9.81152 26.8561 9.60132Z" stroke="white" stroke-width="1.33333" stroke-linecap="round" stroke-linejoin="round"/>
</svg>
