<svg width="92" height="92" viewBox="0 0 92 92" fill="none" xmlns="http://www.w3.org/2000/svg">
<g clip-path="url(#clip0_840_104)">
<path d="M55.0129 18.9213C53.8727 20.0606 53.4015 21.3917 53.1794 23.0246L52.0419 21.8881C49.5858 19.4342 45.5888 19.4342 43.132 21.8889C40.6751 24.3435 40.6751 28.3369 43.1312 30.7907L48.378 36.0328L35.7547 48.6446L30.5079 43.4026C28.0518 40.9488 24.0548 40.9488 21.598 43.4034C19.1411 45.858 19.1411 49.8514 21.5972 52.3052L22.7346 53.4416C21.2859 53.478 19.768 54.1342 18.6276 55.2735C16.171 57.7281 16.1687 61.7193 18.622 64.1703L27.5442 73.0845C29.9973 75.5354 33.9922 75.5333 36.4491 73.0786C37.5893 71.9394 38.2463 70.423 38.2827 68.9755L39.4208 70.1126C41.8769 72.5664 45.8732 72.5657 48.33 70.1111C50.7869 67.6564 50.7876 63.6638 48.3315 61.2099L43.1805 56.0635L55.8038 43.4516L60.9549 48.598C63.411 51.0518 67.4073 51.0511 69.8641 48.5965C72.321 46.1418 72.3217 42.1492 69.8656 39.6953L68.7275 38.5582C70.362 38.3365 71.694 37.8656 72.8344 36.7263C75.2912 34.2716 75.2933 30.2804 72.8402 27.8294L63.918 18.9153C61.4646 16.4645 57.4698 16.4667 55.0129 18.9213ZM34.9697 65.6657C36.6042 67.2986 36.6017 69.9586 34.9639 71.5949C33.3261 73.2312 30.6637 73.2337 29.0292 71.6008L20.107 62.6866C18.4726 61.0537 18.475 58.3937 20.1128 56.7574C21.7506 55.1211 24.413 55.1186 26.0475 56.7515L34.9697 65.6657ZM34.964 50.8222L40.9044 56.7573L46.8463 62.6938C48.483 64.329 48.4826 66.9911 46.8448 68.6274C45.2071 70.2636 42.5425 70.2641 40.9058 68.6289L36.4549 64.182L27.5326 55.2678L23.0823 50.8215C21.4449 49.1856 21.4452 46.5234 23.083 44.8871C24.7207 43.2508 27.3853 43.2504 29.0228 44.8864L34.964 50.8222ZM54.3185 41.9678L41.6952 54.5797L37.2398 50.1284L49.8632 37.5165L54.3185 41.9678ZM55.0072 27.818L63.9294 36.7322L68.3803 41.1791C70.017 42.8143 70.0166 45.4764 68.3788 47.1127C66.7411 48.7489 64.0765 48.7494 62.4398 47.1142L56.498 41.1777L50.5575 35.2426L44.6164 29.3069C42.979 27.671 42.9793 25.0088 44.6171 23.3725C46.2548 21.7362 48.9194 21.7358 50.5569 23.3718L55.0072 27.818ZM71.3549 29.3134C72.9894 30.9464 72.9869 33.6063 71.3491 35.2427C69.7113 36.8789 67.0489 36.8815 65.4144 35.2485L56.4922 26.3344C54.8578 24.7014 54.8602 22.0414 56.498 20.4051C58.1358 18.7688 60.7982 18.7663 62.4327 20.3993L71.3549 29.3134Z" fill="white" stroke="white" stroke-width="0.00064"/>
</g>
<defs>
<clipPath id="clip0_840_104">
<rect width="64.029" height="64.029" rx="3" transform="matrix(0.707427 -0.706787 0.707427 0.706787 0.435181 46)" fill="white"/>
</clipPath>
</defs>
</svg>
